<?xml version="1.0" encoding="UTF-8" standalone="no"?>
<svg
   width="32px"
   height="32px"
   viewBox="0 0 32 32"
   version="1.1"
   id="svg4"
   sodipodi:docname="icon.svg"
   inkscape:version="1.1 (ce6663b3b7, 2021-05-25)"
   xmlns:inkscape="http://www.inkscape.org/namespaces/inkscape"
   xmlns:sodipodi="http://sodipodi.sourceforge.net/DTD/sodipodi-0.dtd"
   xmlns="http://www.w3.org/2000/svg"
   xmlns:svg="http://www.w3.org/2000/svg">
  <defs
     id="defs8" />
  <sodipodi:namedview
     id="namedview6"
     pagecolor="#505050"
     bordercolor="#eeeeee"
     borderopacity="1"
     inkscape:pageshadow="0"
     inkscape:pageopacity="0"
     inkscape:pagecheckerboard="0"
     showgrid="false"
     inkscape:zoom="16.625"
     inkscape:cx="16"
     inkscape:cy="20.842105"
     inkscape:window-width="1302"
     inkscape:window-height="704"
     inkscape:window-x="1430"
     inkscape:window-y="27"
     inkscape:window-maximized="1"
     inkscape:current-layer="svg4" />
  <path
     d="M18.297 1.536h0.771c4.989 0 7.312 2.609 8.281 9.568l1.547-0.068-0.208-11.036h-25.376l-0.249 11.036 1.484 0.068c0.26-2.609 0.568-4.016 1.24-5.416 1.183-2.609 3.651-4.152 6.692-4.152h1.079v24.016c0 2.541-0.151 3.344-0.771 3.948-0.516 0.469-1.541 0.667-2.729 0.667h-1.183v1.604h14.104v-1.604h-1.187c-1.177 0-2.213-0.197-2.724-0.667-0.615-0.604-0.771-1.407-0.771-3.948v-24.016zM2.667 14.5h6.505v6.495h-6.505zM22.579 14.5h6.504v6.495h-6.504z"
     id="path2"
     style="fill:#7b9e87;fill-opacity:0.64313728" />
</svg>
